<svg xmlns="http://www.w3.org/2000/svg" width="24" height="24" viewBox="0 0 24 24">
    <g fill="#FFF" fill-rule="nonzero">
        <path d="M12 0C5.383 0 0 5.383 0 12s5.383 12 12 12 12-5.383 12-12S18.617 0 12 0zm0 23.077C5.892 23.077.923 18.107.923 12 .923 5.892 5.893.923 12 .923c6.108 0 11.077 4.97 11.077 11.077 0 6.108-4.97 11.077-11.077 11.077z"/>
        <path d="M16.48 7.52a.461.461 0 0 0-.652 0L12 11.347 8.172 7.52a.461.461 0 1 0-.652.652L11.347 12 7.52 15.828a.461.461 0 1 0 .652.652L12 12.653l3.828 3.827a.46.46 0 0 0 .652 0 .461.461 0 0 0 0-.652L12.653 12l3.827-3.828a.461.461 0 0 0 0-.652z"/>
    </g>
</svg>
